<?xml version="1.0" standalone="no"?><!DOCTYPE svg PUBLIC "-//W3C//DTD SVG 1.1//EN" "http://www.w3.org/Graphics/SVG/1.1/DTD/svg11.dtd"><svg t="1512628681870" class="icon" style="" viewBox="0 0 1024 1024" version="1.1" xmlns="http://www.w3.org/2000/svg" p-id="1993" xmlns:xlink="http://www.w3.org/1999/xlink" width="200" height="200"><defs><style type="text/css"></style></defs><path d="M511.486812 388.825656c-66.602907 0-120.589472 54.193273-120.589472 121.076566 0 66.884316 53.986565 121.087822 120.589472 121.087822 66.595744 0 120.589472-54.212716 120.589472-121.087822C632.076284 443.029162 578.082556 388.825656 511.486812 388.825656zM511.486812 569.744145c-33.048697 0-59.83783-26.792203-59.83783-59.841923 0-33.026184 26.78811-59.83783 59.83783-59.83783 33.038464 0 59.829644 26.810622 59.829644 59.83783C571.316455 542.951943 544.525276 569.744145 511.486812 569.744145z" p-id="1994" fill="#000000"></path><path d="M511.481695 64.775282c-245.843174 0-445.138196 199.293999-445.138196 445.138196s199.295022 445.138196 445.138196 445.138196 445.138196-199.295022 445.138196-445.138196S757.32487 64.775282 511.481695 64.775282zM746.564805 599.082334l-43.562145 70.811766-61.933561-25.52842c-9.914814 9.831926-21.432125 18.552541-33.918507 26.170033l7.30436 68.75799-80.797188 19.256576-25.111934-60.590983c-14.971993-0.149403-29.609365-2.134617-44.00933-5.711072l-42.403762 52.606125-70.694085-43.593867 24.580838-59.620889c-10.461259-10.68127-19.49603-22.802332-27.204595-36.20969l-66.719564 7.179516-19.267832-80.931241 59.778478-24.832572c0.320295-15.106046 2.577708-30.085202 6.412037-44.528146l-52.473095-42.436508 43.584658-70.746274 60.990073 25.122167c9.054213-8.565073 19.2269-16.398482 30.3134-23.279193l-9.437953-68.136843 80.288604-21.570271 27.650757 61.58973c15.922644 0.084934 31.659047 2.094708 46.953382 6.100952l44.12087-54.854329 70.697155 43.62559-26.105564 63.434751c9.29162 9.82067 17.557888 20.814048 24.686239 32.839943l70.644967-7.561209 19.207457 80.827887-63.020312 26.292829c-0.214894 13.933337-2.059915 27.774577-5.366218 41.288358L746.564805 599.082334z" p-id="1995" fill="#000000"></path></svg>